<?xml version="1.0" encoding="UTF-8"?>
<svg xmlns="http://www.w3.org/2000/svg" xmlns:xlink="http://www.w3.org/1999/xlink" width="150px" height="150px" viewBox="0 0 150 150" version="1.1">
<g id="surface1">
<path style=" stroke:none;fill-rule:nonzero;fill:rgb(100%,83.529412%,0%);fill-opacity:1;" d="M 114.300781 25.5 C 123.523438 35.925781 126.898438 50.550781 125.550781 63.074219 C 124.199219 75.601562 118.050781 85.949219 112.351562 97.273438 C 106.648438 108.523438 101.398438 120.75 91.199219 128.25 C 81 135.824219 65.925781 138.675781 54 133.875 C 42.074219 129 33.375 116.550781 26.699219 103.574219 C 19.949219 90.601562 15.148438 77.101562 18.675781 66.375 C 22.125 55.726562 33.824219 47.773438 44.625 37.648438 C 55.351562 27.523438 65.175781 15.148438 77.625 12.074219 C 90.074219 9 105.074219 15.074219 114.300781 25.5 Z M 114.300781 25.5 "/>
</g>
</svg>
